<svg xmlns="http://www.w3.org/2000/svg" viewBox="0 0 1180 1336" width="1180" height="1336" font-family="-apple-system,Segoe UI,Roboto,sans-serif"><defs><marker id="arrow" viewBox="0 0 10 10" refX="8" refY="5" markerWidth="7" markerHeight="7" orient="auto-start-reverse"><path d="M0,0 L10,5 L0,10 z" fill="#475569"/></marker></defs><rect x="0" y="0" width="1180" height="1336" fill="#0b1220"/><rect x="16" y="24" width="1148" height="222" rx="14" fill="#0f172a" stroke="#1e293b"/><text x="30" y="56" fill="#e2e8f0" font-size="15" font-weight="700">Hardened Infrastructure</text><g><rect x="43" y="70" width="206" height="72" rx="9" fill="#94a3b8"/><text x="55" y="94" fill="#ffffff" font-size="13.5" font-weight="700">crypto-channel</text><text x="55" y="112" fill="#e8edf6" font-size="10.5">v0.1.0 · 2026-06-11</text><text x="55" y="128" fill="#dbeafe" font-size="10">959 LOC · 5c90 · T S/D</text></g><g><rect x="265" y="70" width="206" height="72" rx="9" fill="#94a3b8"/><text x="277" y="94" fill="#ffffff" font-size="13.5" font-weight="700">esp32</text><text x="277" y="112" fill="#e8edf6" font-size="10.5">v- · 2026-06-11</text><text x="277" y="128" fill="#dbeafe" font-size="10">3.5k LOC · 10c90 · T S/D</text></g><g><rect x="487" y="70" width="206" height="72" rx="9" fill="#94a3b8"/><text x="499" y="94" fill="#ffffff" font-size="13.5" font-weight="700">fastapi</text><text x="499" y="112" fill="#e8edf6" font-size="10.5">v0.2.0 · 2026-06-11</text><text x="499" y="128" fill="#dbeafe" font-size="10">2.7k LOC · 11c90 · T S/D</text></g><g><rect x="709" y="70" width="206" height="72" rx="9" fill="#94a3b8"/><text x="721" y="94" fill="#ffffff" font-size="13.5" font-weight="700">flask</text><text x="721" y="112" fill="#e8edf6" font-size="10.5">v0.2.0 · 2026-06-11</text><text x="721" y="128" fill="#dbeafe" font-size="10">4.4k LOC · 18c90 · T S/D</text></g><g><rect x="931" y="70" width="206" height="72" rx="9" fill="#94a3b8"/><text x="943" y="94" fill="#ffffff" font-size="13.5" font-weight="700">opcua</text><text x="943" y="112" fill="#e8edf6" font-size="10.5">v0.1.0 · 2026-06-11</text><text x="943" y="128" fill="#dbeafe" font-size="10">3.2k LOC · 16c90 · T S/D</text></g><g><rect x="376" y="158" width="206" height="72" rx="9" fill="#94a3b8"/><text x="388" y="182" fill="#ffffff" font-size="13.5" font-weight="700">requests</text><text x="388" y="200" fill="#e8edf6" font-size="10.5">v0.2.0 · 2026-06-11</text><text x="388" y="216" fill="#dbeafe" font-size="10">2.6k LOC · 8c90 · T S/D</text></g><g><rect x="598" y="158" width="206" height="72" rx="9" fill="#94a3b8"/><text x="610" y="182" fill="#ffffff" font-size="13.5" font-weight="700">vuln-scanner</text><text x="610" y="200" fill="#e8edf6" font-size="10.5">v0.1.0 · 2026-06-11</text><text x="610" y="216" fill="#dbeafe" font-size="10">1.3k LOC · 7c90 · T S/D</text></g><rect x="16" y="302" width="1148" height="134" rx="14" fill="#0f172a" stroke="#1e293b"/><text x="30" y="334" fill="#e2e8f0" font-size="15" font-weight="700">Cloud Posture &amp; Translucency</text><g><rect x="376" y="348" width="206" height="72" rx="9" fill="#7c3aed"/><text x="388" y="372" fill="#ffffff" font-size="13.5" font-weight="700">arch-translucency</text><text x="388" y="390" fill="#e8edf6" font-size="10.5">v0.8.0 · 2026-06-10</text><text x="388" y="406" fill="#dbeafe" font-size="10">12.3k LOC · 63c90 · T S/D</text></g><g><rect x="598" y="348" width="206" height="72" rx="9" fill="#2563eb"/><text x="610" y="372" fill="#ffffff" font-size="13.5" font-weight="700">scoutsuite</text><text x="610" y="390" fill="#e8edf6" font-size="10.5">v0.2.0 · 2026-06-07</text><text x="610" y="406" fill="#dbeafe" font-size="10">2.3k LOC · 4c90 · T S/D</text></g><rect x="16" y="492" width="1148" height="134" rx="14" fill="#0f172a" stroke="#1e293b"/><text x="30" y="524" fill="#e2e8f0" font-size="15" font-weight="700">AI Governance &amp; Assessment</text><g><rect x="376" y="538" width="206" height="72" rx="9" fill="#7c3aed"/><text x="388" y="562" fill="#ffffff" font-size="13.5" font-weight="700">ikigov-assess</text><text x="388" y="580" fill="#e8edf6" font-size="10.5">v0.21.0 · 2026-06-11</text><text x="388" y="596" fill="#dbeafe" font-size="10">13.1k LOC · 38c90 · T S/D</text></g><g><rect x="598" y="538" width="206" height="72" rx="9" fill="#2563eb"/><text x="610" y="562" fill="#ffffff" font-size="13.5" font-weight="700">assessor</text><text x="610" y="580" fill="#e8edf6" font-size="10.5">v0.2.0 · 2026-05-13</text><text x="610" y="596" fill="#dbeafe" font-size="10">5.1k LOC · 3c90 · T S/D</text></g><rect x="16" y="682" width="1148" height="134" rx="14" fill="#0f172a" stroke="#1e293b"/><text x="30" y="714" fill="#e2e8f0" font-size="15" font-weight="700">Flagship Platforms</text><g><rect x="154" y="728" width="206" height="72" rx="9" fill="#7c3aed"/><text x="166" y="752" fill="#ffffff" font-size="13.5" font-weight="700">ai</text><text x="166" y="770" fill="#e8edf6" font-size="10.5">v0.30.0 · 2026-06-09</text><text x="166" y="786" fill="#dbeafe" font-size="10">11.8k LOC · 37c90 · T S/D</text></g><g><rect x="376" y="728" width="206" height="72" rx="9" fill="#7c3aed"/><text x="388" y="752" fill="#ffffff" font-size="13.5" font-weight="700">treasury</text><text x="388" y="770" fill="#e8edf6" font-size="10.5">v- · 2026-06-12</text><text x="388" y="786" fill="#dbeafe" font-size="10">16.7k LOC · 42c90 · T -/D</text></g><g><rect x="598" y="728" width="206" height="72" rx="9" fill="#7c3aed"/><text x="610" y="752" fill="#ffffff" font-size="13.5" font-weight="700">x402</text><text x="610" y="770" fill="#e8edf6" font-size="10.5">v0.4.0 · 2026-06-07</text><text x="610" y="786" fill="#dbeafe" font-size="10">11.4k LOC · 56c90 · T S/D</text></g><g><rect x="820" y="728" width="206" height="72" rx="9" fill="#2563eb"/><text x="832" y="752" fill="#ffffff" font-size="13.5" font-weight="700">x402-mcp</text><text x="832" y="770" fill="#e8edf6" font-size="10.5">v0.1.1 · 2026-06-07</text><text x="832" y="786" fill="#dbeafe" font-size="10">1.5k LOC · 12c90 · T S/D</text></g><rect x="16" y="872" width="1148" height="222" rx="14" fill="#0f172a" stroke="#1e293b"/><text x="30" y="904" fill="#e2e8f0" font-size="15" font-weight="700">Research &amp; Publications</text><g><rect x="43" y="918" width="206" height="72" rx="9" fill="#0d9488"/><text x="55" y="942" fill="#ffffff" font-size="13.5" font-weight="700">eai-classificator</text><text x="55" y="960" fill="#e8edf6" font-size="10.5">v- · 2026-06-02</text><text x="55" y="976" fill="#dbeafe" font-size="10">16.5k LOC · 12c90 · T -/-</text></g><g><rect x="265" y="918" width="206" height="72" rx="9" fill="#94a3b8"/><text x="277" y="942" fill="#ffffff" font-size="13.5" font-weight="700">fl</text><text x="277" y="960" fill="#e8edf6" font-size="10.5">v0.1.0 · 2026-06-11</text><text x="277" y="976" fill="#dbeafe" font-size="10">1.5k LOC · 13c90 · T S/D</text></g><g><rect x="487" y="918" width="206" height="72" rx="9" fill="#94a3b8"/><text x="499" y="942" fill="#ffffff" font-size="13.5" font-weight="700">ids</text><text x="499" y="960" fill="#e8edf6" font-size="10.5">v0.1.0 · 2026-06-11</text><text x="499" y="976" fill="#dbeafe" font-size="10">1.2k LOC · 5c90 · T S/D</text></g><g><rect x="709" y="918" width="206" height="72" rx="9" fill="#94a3b8"/><text x="721" y="942" fill="#ffffff" font-size="13.5" font-weight="700">predictor</text><text x="721" y="960" fill="#e8edf6" font-size="10.5">v0.1.0 · 2026-06-11</text><text x="721" y="976" fill="#dbeafe" font-size="10">3k LOC · 2c90 · T S/D</text></g><g><rect x="931" y="918" width="206" height="72" rx="9" fill="#0d9488"/><text x="943" y="942" fill="#ffffff" font-size="13.5" font-weight="700">vol-asssign</text><text x="943" y="960" fill="#e8edf6" font-size="10.5">v0.2.0 · 2026-06-07</text><text x="943" y="976" fill="#dbeafe" font-size="10">6.5k LOC · 11c90 · T S/D</text></g><g><rect x="487" y="1006" width="206" height="72" rx="9" fill="#0d9488"/><text x="499" y="1030" fill="#ffffff" font-size="13.5" font-weight="700">zkp</text><text x="499" y="1048" fill="#e8edf6" font-size="10.5">v- · 2026-05-10</text><text x="499" y="1064" fill="#dbeafe" font-size="10">4.4k LOC · 14c90 · T -/-</text></g><rect x="16" y="1150" width="1148" height="134" rx="14" fill="#0f172a" stroke="#1e293b"/><text x="30" y="1182" fill="#e2e8f0" font-size="15" font-weight="700">Public Tooling &amp; Assurance</text><g><rect x="487" y="1196" width="206" height="72" rx="9" fill="#2563eb"/><text x="499" y="1220" fill="#ffffff" font-size="13.5" font-weight="700">angellist</text><text x="499" y="1238" fill="#e8edf6" font-size="10.5">v0.7.1 · 2026-06-07</text><text x="499" y="1254" fill="#dbeafe" font-size="10">6.5k LOC · 14c90 · T S/D</text></g><line x1="590.0" y1="246" x2="590.0" y2="296" stroke="#475569" stroke-width="2" marker-end="url(#arrow)"/><rect x="521" y="263" width="138" height="20" rx="10" fill="#0b1220" stroke="#334155"/><text x="590" y="277" fill="#94a3b8" font-size="11" text-anchor="middle">workloads audited by</text><line x1="590.0" y1="436" x2="590.0" y2="486" stroke="#475569" stroke-width="2" marker-end="url(#arrow)"/><rect x="544" y="453" width="92" height="20" rx="10" fill="#0b1220" stroke="#334155"/><text x="590" y="467" fill="#94a3b8" font-size="11" text-anchor="middle">posture feeds</text><line x1="590.0" y1="626" x2="590.0" y2="676" stroke="#475569" stroke-width="2" marker-end="url(#arrow)"/><rect x="528" y="643" width="125" height="20" rx="10" fill="#0b1220" stroke="#334155"/><text x="590" y="657" fill="#94a3b8" font-size="11" text-anchor="middle">gates AI use cases</text><text x="24" y="1314" fill="#64748b" font-size="11">Stage:</text><rect x="74" y="1303" width="12" height="12" rx="3" fill="#2563eb"/><text x="92" y="1313" fill="#94a3b8" font-size="11">Component</text><rect x="177" y="1303" width="12" height="12" rx="3" fill="#7c3aed"/><text x="195" y="1313" fill="#94a3b8" font-size="11">Flagship</text><rect x="273" y="1303" width="12" height="12" rx="3" fill="#0d9488"/><text x="291" y="1313" fill="#94a3b8" font-size="11">Research</text><rect x="369" y="1303" width="12" height="12" rx="3" fill="#64748b"/><text x="387" y="1313" fill="#94a3b8" font-size="11">Internal</text><rect x="465" y="1303" width="12" height="12" rx="3" fill="#94a3b8"/><text x="483" y="1313" fill="#94a3b8" font-size="11">Frozen</text><rect x="547" y="1303" width="12" height="12" rx="3" fill="#475569"/><text x="565" y="1313" fill="#94a3b8" font-size="11">Archived</text><text x="653" y="1313" fill="#64748b" font-size="11">(dimmed = no commit in 90 days)</text></svg>
